<svg width="24" height="38" viewBox="0 0 24 38" fill="none" xmlns="http://www.w3.org/2000/svg">
<path d="M23.6461 24.8C23.6461 19.16 18.7661 17.68 14.3261 16.64V9.84C16.3261 10.08 18.4061 10.76 20.4461 11.92L22.4461 7C20.2461 5.6 17.3261 4.8 14.3261 4.56V0.199998H10.3261V4.64C4.00609 5.36 0.926094 9 0.926094 13.24C0.926094 18.96 5.88609 20.44 10.3261 21.52V28.2C7.44609 27.92 4.56609 26.84 2.56609 25.36L0.366094 30.24C2.56609 31.96 6.36609 33.2 10.3261 33.44V37.8H14.3261V33.32C20.6061 32.56 23.6461 28.96 23.6461 24.8ZM7.36609 12.92C7.36609 11.6 8.20609 10.44 10.3261 9.96V15.64C8.56609 15.08 7.36609 14.32 7.36609 12.92ZM14.3261 28.04V22.52C16.0461 23.12 17.2061 23.88 17.2061 25.28C17.2061 26.56 16.3261 27.6 14.3261 28.04Z" fill="white"/>
</svg>
