<svg width="475" height="762" fill="none" xmlns="http://www.w3.org/2000/svg"><path d="M301.794 758.787s153.13-32.43 159.437-119.074c6.307-86.643-231.598-17.186-136.358-198 95.241-180.813 181.318-185.289 136.358-298-44.96-112.71-165.687-171.879-305.937-127.125C15.043 61.342 1.841 348.713 1.841 348.713" stroke="#D0D5F6" stroke-width="2"/><path d="M259.804 758.787s120.125-28.481 125.072-104.574c4.948-76.094-181.679-15.094-106.966-173.891 74.712-158.796 142.235-162.727 106.966-261.714-35.268-98.986-129.974-150.95-239.995-111.646C34.861 146.267 24.504 398.646 24.504 398.646" stroke="#D0D5F6" stroke-width="2"/><path d="M223.569 760.787s90.905-24.841 94.649-91.208c3.744-66.367-137.487-13.164-80.948-151.663 56.54-138.5 107.638-141.928 80.948-228.262-26.69-86.334-98.359-131.656-181.618-97.376C53.342 226.559 45.504 446.68 45.504 446.68" stroke="#D0D5F6" stroke-width="2"/></svg>