<svg width="474" height="762" fill="none" xmlns="http://www.w3.org/2000/svg"><path d="M172.714 2.973S19.583 35.403 13.276 122.047c-6.307 86.643 231.599 17.186 136.358 198-95.241 180.813-181.317 185.289-136.358 298 44.96 112.71 165.687 171.879 305.938 127.125 140.25-44.753 153.453-332.125 153.453-332.125" stroke="#D0D5F6" stroke-width="2"/><path d="M214.703 2.973S94.578 31.454 89.631 107.547c-4.948 76.094 181.679 15.094 106.967 173.891C121.885 440.234 54.362 444.165 89.631 543.152c35.269 98.986 129.974 150.95 239.995 111.646 110.021-39.305 120.377-291.684 120.377-291.684" stroke="#D0D5F6" stroke-width="2"/><path d="M250.938.973s-90.905 24.84-94.649 91.208c-3.744 66.367 137.487 13.164 80.948 151.663-56.539 138.5-107.638 141.928-80.948 228.262 26.69 86.334 98.359 131.656 181.618 97.376 83.259-34.281 91.096-254.401 91.096-254.401" stroke="#D0D5F6" stroke-width="2"/></svg>